<svg xmlns="http://www.w3.org/2000/svg" viewBox="0 0 1300 1300"><defs><style>.cls-1{fill:#ffdba8;}.cls-1,.cls-2,.cls-3,.cls-4{stroke:#000;stroke-width:2px;}.cls-1,.cls-2,.cls-3,.cls-4,.cls-5,.cls-6{stroke-miterlimit:10;}.cls-2{fill:#c8f8ff;}.cls-3{fill:#62acde;}.cls-4{fill:#cc2727;}.cls-5{fill:#7a1717;stroke-width:6px;}.cls-5,.cls-6{stroke:#949494;}.cls-6{fill:none;stroke-width:7px;}</style></defs><g id="Balde"><path class="cls-1" d="M425.48,878.8c3.2-12.56,13.56-22.5,25.54-27.44s25.39-5.42,38.25-3.81a127,127,0,0,1,80.25,43.36"/><rect id="Céu" class="cls-2" width="1300" height="640.31"/><rect id="Mar" class="cls-3" x="-0.44" y="610.52" width="1300" height="608.58"/><path id="Areia" class="cls-1" d="M-1,1300.53l1299.13-.53,2.39-454.88S1010.92,688,634.7,710C277.09,730.92-1.4,897.94-1.4,897.94Z"/><path class="cls-4" d="M663.26,919.48c-141.21,0-142-47-142-47L437.53,478.24H888.74L805.26,872.48S801.15,919.48,663.26,919.48Z"/><ellipse class="cls-5" cx="663.13" cy="478.24" rx="225.61" ry="47"/><path class="cls-6" d="M438.57,478.88S517.5,301.56,659.74,301.56c146.47,0,228.93,180,228.93,180"/><path class="cls-1" d="M529.63,939c20.27-23.32,52-34,82.8-35.88s61.54,4,92.1,8.51,62,7.77,92.11.76"/></g></svg>