<svg xmlns="http://www.w3.org/2000/svg" viewBox="0 0 1300 1300"><defs><style>.cls-1{fill:#c8f8ff;}.cls-1,.cls-2,.cls-3,.cls-4,.cls-5,.cls-6{stroke:#000;stroke-width:2px;}.cls-1,.cls-2,.cls-3,.cls-4,.cls-5,.cls-6,.cls-7{stroke-miterlimit:10;}.cls-2{fill:#62acde;}.cls-3{fill:#ffdba8;}.cls-4{fill:#e0aa5e;}.cls-5{fill:#6a9c28;}.cls-6{fill:#b38546;}.cls-7{fill:none;stroke:#c1272d;stroke-width:12px;}</style></defs><g id="Coco"><rect id="Céu" class="cls-1" x="0.44" y="-0.27" width="1300" height="640.31"/><rect id="Mar" class="cls-2" y="610.25" width="1300" height="608.58"/><path id="Areia" class="cls-3" d="M-.57,1300.27l1299.13-.54,2.4-454.87S1011.35,687.72,635.14,709.73C277.52,730.66-1,897.67-1,897.67Z"/><path class="cls-4" d="M458,549.34c21.7-21.25,52.64-33.48,83-35.18,12-.67,24.06.37,36-1,14.27-1.66,27.88-6.73,41.74-10.5,49.14-13.35,87-1.23,137.85,2,18.33,1.16,27.65-2.68,46-1.52,14.61.92,38.76,6.1,57.56,11.09,5.79,1.54,24.67,34.46,24.67,34.46a29.91,29.91,0,0,0-14.19,12.23c-3.67,6.47-10.46,10.43-17.06,13.87C774.24,616,681.9,622.84,592.57,623.51c-28.5.21-57.29-.15-85-6.8-12.19-2.92-24.53-7.31-33.51-16.07C461.34,588.23,456.16,567.87,458,549.34Z"/><path class="cls-5" d="M866.12,520.62s40.56,45,54.31,140.58c3.22,22.39,2,45.21-.87,67.65-10.12,79.11-37.21,156.42-99.66,206-92.73,24-209.67,24.15-305.46.46-96-106.73-122-266.17-57.74-386,5.86,12,7.42,30.24,40,39,24.06,6.46,56.07-16.5,56.07-16.5s33.11,26,57.58,25c35.13-1.41,60.23-29.55,60.23-29.55s25.93,32.56,62.33,27.21c39.3-5.77,54.1-43.78,54.1-43.78s31.58,20.09,53.79,12.46C863.67,555.35,866.12,520.62,866.12,520.62Z"/><ellipse class="cls-6" cx="671.88" cy="529.62" rx="34.5" ry="9"/><polyline class="cls-7" points="673.63 537.5 674.68 390.77 647.11 363.03 594.72 359.35"/><path class="cls-3" d="M736.34,952.7c37.35-29.53,87.57-36.21,135.14-38.07s96.53,27.23,141.15,10.6"/><path class="cls-3" d="M469.5,947.47c9.26-19.75,32.64-29.56,54.45-29.64s42.78,7.66,63.55,14.34a702.43,702.43,0,0,0,127.84,28.26"/></g></svg>