<svg xmlns="http://www.w3.org/2000/svg" viewBox="0 0 1300 1300"><defs><style>.cls-1{fill:#c8f8ff;}.cls-1,.cls-2,.cls-3,.cls-4,.cls-5{stroke:#000;stroke-miterlimit:10;stroke-width:2px;}.cls-2{fill:#62acde;}.cls-3{fill:#ffdba8;}.cls-4{fill:#fff;}.cls-5{fill:#06b500;}</style></defs><g id="Bola"><rect id="Céu" class="cls-1" x="0.44" y="-0.27" width="1300" height="640.31"/><rect id="Mar" class="cls-2" y="610.25" width="1300" height="608.58"/><path id="Areia" class="cls-3" d="M-.57,1300.27l1299.13-.54,2.4-454.87S1011.35,687.72,635.14,709.73C277.52,730.66-1,897.67-1,897.67Z"/><circle class="cls-4" cx="680.48" cy="710.85" r="210.75"/><ellipse class="cls-5" cx="680.48" cy="710.85" rx="169.19" ry="210.75"/><ellipse class="cls-4" cx="680.48" cy="710.85" rx="118.43" ry="210.75"/><ellipse class="cls-5" cx="680.48" cy="710.85" rx="50.76" ry="210.75"/><path class="cls-3" d="M547.44,945.29c3.4-16,15.37-29.2,29.64-37.16s30.67-11.24,46.92-12.9a264.51,264.51,0,0,1,75.31,3.13c23.31,4.35,46,11.84,69.5,15.07s48.69,1.78,69-10.54"/></g></svg>