<svg xmlns="http://www.w3.org/2000/svg" viewBox="0 0 1300 1300"><defs><style>.cls-1{fill:none;}.cls-1,.cls-2,.cls-3,.cls-4{stroke:#000;stroke-width:2px;}.cls-1,.cls-2,.cls-3,.cls-4,.cls-5,.cls-6,.cls-7{stroke-miterlimit:10;}.cls-2{fill:#c8f8ff;}.cls-3{fill:#62acde;}.cls-4{fill:#ffdba8;}.cls-5{fill:#5d3710;}.cls-5,.cls-6,.cls-7{stroke:#1e120d;}.cls-6{fill:#edf6f1;}.cls-7{fill:#f52b2d;}</style></defs><g id="Coco"><path class="cls-1" d="M789.29,927.47c6.72-16.86,24-27.81,41.78-31.33s36.24-.69,54,3.15,35.43,8.71,53.57,9.31c14.19.47,30.46-3,37.36-15.43"/></g><g id="Guarda_sol" data-name="Guarda sol"><rect id="Céu" class="cls-2" x="0.44" y="-0.27" width="1300" height="640.31"/><rect id="Mar" class="cls-3" y="610.25" width="1300" height="608.58"/><path id="Areia" class="cls-4" d="M-.57,1300.27l1299.13-.54,2.4-454.87S1011.35,687.72,635.14,709.73C277.52,730.66-1,897.67-1,897.67Z"/><rect class="cls-5" x="407.29" y="704.88" width="567.05" height="14.14" transform="translate(630.51 -278.23) rotate(40.65)"/><path class="cls-6" d="M874.38,468C745.64,352.78,557.8,360.73,454.85,485.81s-82,319.9,46.7,435.16Z"/><path class="cls-7" d="M839.79,510.06C711,394.81,538.7,384,454.85,485.81s-47.45,277.88,81.3,393.13Z"/><path class="cls-6" d="M780.79,581.74C652,466.48,506.11,423.53,454.85,485.81S466.4,692,595.15,807.27Z"/><path class="cls-7" d="M717.26,658.92C588.51,543.67,471,466.16,454.85,485.81s75.08,129,203.83,244.27Z"/><path class="cls-4" d="M849.43,910.89c18.45-8.81,37.69-17.81,58.13-17.72,6.85,0,13.64,1.09,20.47,1.6a127.29,127.29,0,0,0,31.31-1.54"/><path class="cls-4" d="M473.94,922.22c11-6.81,24.66-7.87,37.56-6.71s25.55,4.33,38.46,5.27"/></g></svg>